<svg xmlns="http://www.w3.org/2000/svg" version="1.1" xmlns:xlink="http://www.w3.org/1999/xlink" xmlns:svgjs="http://svgjs.dev/svgjs" width="1440" height="560" preserveAspectRatio="none" viewBox="0 0 1440 560">
                <rect width="1440" height="560" fill="#000000"></rect>
    <g mask="url(&quot;#SvgjsMask1046&quot;)" fill="none">
        <rect width="1440" height="560" x="0" y="0" fill="rgba(17, 54, 33, 1)"></rect>
        <path d="M124.73 73.37 a176.95 176.95 0 1 0 353.9 0 a176.95 176.95 0 1 0 -353.9 0z" fill="rgba(73, 135, 101, 1)" class="triangle-float1"></path>
        <path d="M770.49 549.54 a109.05 109.05 0 1 0 218.1 0 a109.05 109.05 0 1 0 -218.1 0z" fill="rgba(73, 135, 101, 1)" class="triangle-float3"></path>
        <path d="M881.7 397.16 a169.76 169.76 0 1 0 339.52 0 a169.76 169.76 0 1 0 -339.52 0z" fill="rgba(73, 135, 101, 1)" class="triangle-float2"></path>
        <path d="M425.95 53.23 a116.83 116.83 0 1 0 233.66 0 a116.83 116.83 0 1 0 -233.66 0z" fill="rgba(73, 135, 101, 1)" class="triangle-float1"></path>
        <path d="M1224.15 300.71 a151.64 151.64 0 1 0 303.28 0 a151.64 151.64 0 1 0 -303.28 0z" fill="rgba(73, 135, 101, 1)" class="triangle-float3"></path>
        <path d="M-131.59 182.29 a177.44 177.44 0 1 0 354.88 0 a177.44 177.44 0 1 0 -354.88 0z" fill="rgba(73, 135, 101, 1)" class="triangle-float1"></path>
        <path d="M1104.68 450.35 a173.37 173.37 0 1 0 346.74 0 a173.37 173.37 0 1 0 -346.74 0z" fill="rgba(73, 135, 101, 1)" class="triangle-float3"></path>
    </g>
    <defs>
        <style>
            @keyframes float1 {
                    0%{transform: translate(0, 0)}
                    50%{transform: translate(-10px, 0)}
                    100%{transform: translate(0, 0)}
                }

                .triangle-float1 {
                    animation: float1 5s infinite;
                }

                @keyframes float2 {
                    0%{transform: translate(0, 0)}
                    50%{transform: translate(-5px, -5px)}
                    100%{transform: translate(0, 0)}
                }

                .triangle-float2 {
                    animation: float2 4s infinite;
                }

                @keyframes float3 {
                    0%{transform: translate(0, 0)}
                    50%{transform: translate(0, -10px)}
                    100%{transform: translate(0, 0)}
                }

                .triangle-float3 {
                    animation: float3 6s infinite;
                }
        </style>
    </defs>
</svg>