<svg xmlns="http://www.w3.org/2000/svg" version="1.1" xmlns:xlink="http://www.w3.org/1999/xlink" xmlns:svgjs="http://svgjs.dev/svgjs" width="1440" height="560" preserveAspectRatio="none" viewBox="0 0 1440 560">
    <g mask="url(&quot;#SvgjsMask1051&quot;)" fill="none">
        <path d="M172.16 312.61 a117.28 117.28 0 1 0 234.56 0 a117.28 117.28 0 1 0 -234.56 0z" fill="rgba(146, 92, 19, 0.38)" class="triangle-float1"></path>
        <path d="M404.56 289.51 a177.27 177.27 0 1 0 354.54 0 a177.27 177.27 0 1 0 -354.54 0z" fill="rgba(146, 92, 19, 0.38)" class="triangle-float3"></path>
        <path d="M1067.99 95.36 a165.84 165.84 0 1 0 331.68 0 a165.84 165.84 0 1 0 -331.68 0z" fill="rgba(146, 92, 19, 0.38)" class="triangle-float2"></path>
        <path d="M209.44 180.81 a183.44 183.44 0 1 0 366.88 0 a183.44 183.44 0 1 0 -366.88 0z" fill="rgba(146, 92, 19, 0.38)" class="triangle-float1"></path>
        <path d="M1170.87 366.12 a149.72 149.72 0 1 0 299.44 0 a149.72 149.72 0 1 0 -299.44 0z" fill="rgba(146, 92, 19, 0.38)" class="triangle-float2"></path>
        <path d="M340.23 514.85 a186.49 186.49 0 1 0 372.98 0 a186.49 186.49 0 1 0 -372.98 0z" fill="rgba(146, 92, 19, 0.38)" class="triangle-float1"></path>
        <path d="M130.41 393.47 a181.02 181.02 0 1 0 362.04 0 a181.02 181.02 0 1 0 -362.04 0z" fill="rgba(146, 92, 19, 0.38)" class="triangle-float2"></path>
        <path d="M1182.5 9.21 a123.39 123.39 0 1 0 246.78 0 a123.39 123.39 0 1 0 -246.78 0z" fill="rgba(146, 92, 19, 0.38)" class="triangle-float2"></path>
        <path d="M836.17 250.82 a143.55 143.55 0 1 0 287.1 0 a143.55 143.55 0 1 0 -287.1 0z" fill="rgba(146, 92, 19, 0.38)" class="triangle-float2"></path>
        <path d="M691.79 271.78 a179.76 179.76 0 1 0 359.52 0 a179.76 179.76 0 1 0 -359.52 0z" fill="rgba(146, 92, 19, 0.38)" class="triangle-float3"></path>
        <path d="M257.75 68.76 a119.62 119.62 0 1 0 239.24 0 a119.62 119.62 0 1 0 -239.24 0z" fill="rgba(146, 92, 19, 0.38)" class="triangle-float3"></path>
        <path d="M224.43 252.01 a118.8 118.8 0 1 0 237.6 0 a118.8 118.8 0 1 0 -237.6 0z" fill="rgba(146, 92, 19, 0.38)" class="triangle-float3"></path>
        <path d="M1089.14 185.43 a184.79 184.79 0 1 0 369.58 0 a184.79 184.79 0 1 0 -369.58 0z" fill="rgba(146, 92, 19, 0.38)" class="triangle-float2"></path>
        <path d="M886.23 527.69 a127.8 127.8 0 1 0 255.6 0 a127.8 127.8 0 1 0 -255.6 0z" fill="rgba(146, 92, 19, 0.38)" class="triangle-float1"></path>
        <path d="M687.55 410.61 a124.69 124.69 0 1 0 249.38 0 a124.69 124.69 0 1 0 -249.38 0z" fill="rgba(146, 92, 19, 0.38)" class="triangle-float3"></path>
        <path d="M740.89 6.69 a116.99 116.99 0 1 0 233.98 0 a116.99 116.99 0 1 0 -233.98 0z" fill="rgba(146, 92, 19, 0.38)" class="triangle-float3"></path>
        <path d="M384.5 544.84 a176.07 176.07 0 1 0 352.14 0 a176.07 176.07 0 1 0 -352.14 0z" fill="rgba(146, 92, 19, 0.38)" class="triangle-float1"></path>
    </g>
    <defs>
        <mask id="SvgjsMask1051">
            <rect width="1440" height="560" fill="#ffffff"></rect>
        </mask>
        <style>
            @keyframes float1 {
                    0%{transform: translate(0, 0)}
                    50%{transform: translate(-10px, 0)}
                    100%{transform: translate(0, 0)}
                }

                .triangle-float1 {
                    animation: float1 5s infinite;
                }

                @keyframes float2 {
                    0%{transform: translate(0, 0)}
                    50%{transform: translate(-5px, -5px)}
                    100%{transform: translate(0, 0)}
                }

                .triangle-float2 {
                    animation: float2 4s infinite;
                }

                @keyframes float3 {
                    0%{transform: translate(0, 0)}
                    50%{transform: translate(0, -10px)}
                    100%{transform: translate(0, 0)}
                }

                .triangle-float3 {
                    animation: float3 6s infinite;
                }
        </style>
    </defs>
</svg>