<?xml version="1.0" encoding="UTF-8" standalone="no"?>
<!-- Created with Inkscape (http://www.inkscape.org/) -->

<svg
   version="1.1"
   id="svg182"
   width="688.53833"
   height="700.00012"
   viewBox="0 0 688.53832 700.0001"
   sodipodi:docname="Logo Fédération Bénin Football.svg"
   inkscape:version="1.2 (dc2aeda, 2022-05-15)"
   xml:space="preserve"
   xmlns:inkscape="http://www.inkscape.org/namespaces/inkscape"
   xmlns:sodipodi="http://sodipodi.sourceforge.net/DTD/sodipodi-0.dtd"
   xmlns:xlink="http://www.w3.org/1999/xlink"
   xmlns="http://www.w3.org/2000/svg"
   xmlns:svg="http://www.w3.org/2000/svg"><defs
     id="defs186"><linearGradient
       inkscape:collect="always"
       id="linearGradient62499"><stop
         style="stop-color:#b59848;stop-opacity:1"
         offset="0"
         id="stop62495" /><stop
         style="stop-color:#bc9b3d;stop-opacity:1"
         offset="0.14041744"
         id="stop62503" /><stop
         style="stop-color:#c7a329;stop-opacity:1"
         offset="0.26944968"
         id="stop62505" /><stop
         style="stop-color:#9a813f;stop-opacity:1"
         offset="0.66793168"
         id="stop62507" /><stop
         style="stop-color:#9a813f;stop-opacity:1"
         offset="1"
         id="stop62497" /></linearGradient><linearGradient
       inkscape:collect="always"
       id="linearGradient60797"><stop
         style="stop-color:#eec424;stop-opacity:1"
         offset="0"
         id="stop60793" /><stop
         style="stop-color:#d8b233;stop-opacity:1"
         offset="1"
         id="stop60795" /></linearGradient><linearGradient
       x1="0"
       y1="0"
       x2="1"
       y2="0"
       gradientUnits="userSpaceOnUse"
       gradientTransform="matrix(14.51277,-8.378952,-8.378952,-14.51277,190.9307,497.9974)"
       spreadMethod="pad"
       id="linearGradient40786"><stop
         style="stop-opacity:1;stop-color:#be9c54"
         offset="0"
         id="stop40782" /><stop
         style="stop-color:#f0c620;stop-opacity:1"
         offset="0.31304094"
         id="stop40792" /><stop
         style="stop-color:#f2c81f;stop-opacity:1"
         offset="0.47617829"
         id="stop46171" /><stop
         style="stop-color:#e0b359;stop-opacity:1"
         offset="0.62456852"
         id="stop40790" /><stop
         style="stop-color:#d2a954;stop-opacity:1"
         offset="0.76215416"
         id="stop40788" /><stop
         style="stop-opacity:1;stop-color:#9e8340"
         offset="1"
         id="stop40784" /></linearGradient><linearGradient
       inkscape:collect="always"
       xlink:href="#linearGradient40786"
       id="linearGradient40780"
       x1="133.06038"
       y1="0"
       x2="591.69403"
       y2="559.13672"
       gradientUnits="userSpaceOnUse"
       gradientTransform="translate(-3.8273e-5)" /><linearGradient
       inkscape:collect="always"
       xlink:href="#linearGradient60797"
       id="linearGradient60799"
       x1="282.2637"
       y1="670.62653"
       x2="426.39835"
       y2="680.63586"
       gradientUnits="userSpaceOnUse"
       gradientTransform="translate(-3.8273e-5)" /><linearGradient
       inkscape:collect="always"
       xlink:href="#linearGradient62499"
       id="linearGradient62501"
       x1="228.21321"
       y1="382.35721"
       x2="538.50311"
       y2="568.53113"
       gradientUnits="userSpaceOnUse"
       gradientTransform="translate(-3.8273e-5)" /></defs><sodipodi:namedview
     id="namedview184"
     pagecolor="#ffffff"
     bordercolor="#000000"
     borderopacity="0.25"
     inkscape:showpageshadow="2"
     inkscape:pageopacity="0.0"
     inkscape:pagecheckerboard="0"
     inkscape:deskcolor="#d1d1d1"
     showgrid="false"
     inkscape:zoom="0.49953288"
     inkscape:cx="736.68824"
     inkscape:cy="527.4928"
     inkscape:window-width="1900"
     inkscape:window-height="897"
     inkscape:window-x="0"
     inkscape:window-y="25"
     inkscape:window-maximized="1"
     inkscape:current-layer="svg182"
     showguides="true" /><path
     id="path43267"
     style="fill:url(#linearGradient40780);fill-opacity:1;stroke-width:20.1694"
     d="M 179.16402,0 C 175.8966,0 173.71926,0.98851529 171.54098,3.3886719 159.88307,16.236568 148.1037,28.963848 136.2441,41.650391 c -1.73457,1.875753 -2.43945,3.730143 -2.43945,6.271484 0.0605,69.765895 0.0391,139.533605 0.0391,209.339845 l -0.0391,4.0332 c 0.68576,0.44373 1.00868,0.44345 1.35156,0.56446 3.34813,1.14964 6.65448,2.33928 9.98242,3.46874 2.64219,0.9278 5.28491,1.79543 7.94727,2.58204 0.30254,0.0807 0.62519,0.18105 0.92773,0.26172 v -0.60352 l -0.10156,-26.64453 -0.36133,-94.21094 -0.18164,-94.232421 v -1.06836 l 0.74609,-0.80664 28.5586,-30.19336 0.80664,-0.847656 h 1.19141 l 177.53124,-0.242187 88.76563,-0.101563 88.78516,0.101563 h 1.23047 l 0.86718,0.886718 28.64063,28.701172 0.84765,0.867188 v 1.210937 l -0.24218,189.955079 c 4.25573,-0.0807 8.51184,-0.2606 12.76757,-0.54297 2.90439,-0.18153 5.82751,-0.56596 8.9336,-0.88867 V 129.83008 c 0,-27.39002 -0.0189,-54.779263 0.0215,-82.189455 0,-2.016938 -0.24251,-3.730875 -1.77539,-5.384766 -12.42437,-13.331961 -24.76895,-26.726031 -37.07226,-40.1386715 -1.39169,-1.51270369 -2.82227,-2.09634126 -4.85938,-2.07617188 -8.53165,0.08067753 -17.0849,0 -25.63672,0 -114.76377,0 -229.5487,0.01949253 -344.3125,-0.04101562 z m 391.89258,278.68164 -0.3418,109.64063 -0.44531,112.40429 v 0.90821 l -0.66406,0.54296 -22.95313,18.71875 c -0.24203,0.48407 -0.4852,1.00812 -0.76757,1.49219 -3.54982,13.87654 -8.77222,27.08649 -14.98438,40.15625 0.40339,-0.2622 0.82577,-0.48392 1.20899,-0.80664 19.54413,-16.01448 39.08871,-32.06815 58.69335,-48.00195 1.69423,-1.39169 2.01758,-2.88407 2.01758,-4.82031 -0.0403,-67.54728 -0.041,-135.11549 0.0195,-202.64258 0,-1.99677 -0.64478,-3.36943 -2.05664,-4.8418 -4.82047,-4.98183 -9.60177,-10.02426 -13.97851,-15.36914 -1.97661,-2.42033 -3.87229,-4.87985 -5.74805,-7.38086 z M 134.04684,382.47266 v 32.67382 c 1.75473,1.12949 4.03359,2.32109 6.67578,3.53125 0.0202,0.0202 0.019,0.0396 0.0391,0.0195 0.66559,0.30254 1.35266,0.58545 2.05859,0.84765 3.8927,1.55305 7.84567,2.94485 11.85938,4.25586 l -0.14063,-33.24023 c -2.21864,-0.78661 -4.41741,-1.61318 -6.5957,-2.48047 -0.38322,-0.14118 -0.78802,-0.30281 -1.19141,-0.42383 -4.27591,-1.55304 -8.55018,-3.2675 -12.70507,-5.18359 z" /><path
     d="m 346.87374,656.99892 15.34893,12.68657 13.55385,-11.25454 c -1.10932,0.0403 -2.21864,0.12102 -3.32796,0.16135 v 0 c -8.572,0.38322 -17.04316,-0.14118 -25.57482,-1.59338 z"
     id="path13968"
     style="fill:#028752;fill-opacity:1;stroke-width:20.1694" /><path
     d="m 290.94393,640.66169 c 24.02178,19.70552 48.06373,39.39088 72.40822,59.33844 v 0 c 19.30214,-15.79266 38.18072,-31.26261 57.0593,-46.71238 v 0 c 0.56475,-0.48407 1.08915,-1.02864 1.59339,-1.55305 v 0 c 0.0605,-0.0403 0.0403,-0.24203 0.0202,-0.36305 v 0 c -0.0202,-0.0807 -0.14119,-0.14119 -0.36305,-0.42356 v 0 c -1.55305,0.38322 -3.20694,0.76644 -4.881,1.23034 v 0 c -12.88827,3.52965 -26.0589,5.32473 -39.33038,6.1315 v 0 l -14.96571,12.16216 -0.2622,0.2017 -0.24204,-0.2017 -15.87333,-13.59419 c -0.9278,-0.16135 -1.85559,-0.32271 -2.76321,-0.5244 v 0 c -17.34571,-3.44897 -34.26785,-7.92659 -50.26221,-15.55063 v 0 c -0.60508,-0.30254 -1.27067,-0.42355 -1.91609,-0.62525 v 0 c -0.0605,0.16136 -0.16136,0.32271 -0.22186,0.48407"
     id="path13944"
     style="fill:url(#linearGradient60799);fill-opacity:1;stroke-width:20.1694" /><g
     id="g44630"
     transform="translate(-3.8273e-5)"><path
       d="m 36.64788,227.37004 c -10.609117,10.66963 -18.999597,22.8923 -24.768052,36.78903 v 0 C 3.751551,283.72341 0.08071596,303.85249 3.8273e-5,324.3648 v 0 0.30254 c 0,8.59217 0.605082687,17.22468 1.795078627,25.93787 v 0 c 3.2674465,24.20331 11.3150461,46.89391 22.3678901,68.57604 v 0 c 16.317063,31.9282 38.221057,59.54014 64.158935,84.1065 v 0 c 17.950788,16.98265 37.252928,32.33158 56.373538,47.88221 v 0 c 12.30335,10.0242 24.6672,19.96773 38.22106,28.31787 v 0 c 16.39774,10.14522 33.72327,18.27349 52.31948,23.61839 v 0 c 1.29084,0.38322 2.58168,0.68576 4.4171,1.19 v 0 c -10.85115,-13.33199 -21.80314,-27.41025 -24.00161,-30.81888 v 0 C 196.95445,544.85693 192.53735,507.604 190.78261,492.88032 v 0 c -0.58491,-5.12303 -0.80678,-10.2864 -0.80678,-15.4296 v 0 c 0,-1.08915 0.0202,-2.1783 0.0403,-3.28762 v 0 c 0.0807,-5.02219 0.36305,-10.0242 0.66559,-15.04639 v 0 c 0.44373,-6.89794 0.94797,-13.79588 1.43203,-21.01654 v 0 c -3.48931,-0.70593 -6.97862,-1.49254 -10.46793,-2.31948 v 0 c -7.98709,-1.89593 -15.93384,-4.07423 -23.71924,-6.73659 v 0 c -0.0403,0 -0.10085,0 -0.12102,-0.0202 v 0 c -0.12101,-0.0403 -0.2622,-0.0605 -0.40338,-0.12102 v 0 c -0.90763,-0.2622 -1.79508,-0.56474 -2.70271,-0.86728 v 0 c -13.06978,-4.31626 -25.35296,-10.4881 -36.97055,-18.31384 v 0 C 72.549453,379.2458 42.073455,324.02192 40.117021,268.51566 v 0 c -0.443728,-13.23114 -0.06051,-26.50262 -0.08068,-39.75393 v 0 c 0,-1.27067 -0.06051,-2.54135 -0.100847,-4.49778 v 0 c -1.512707,1.43203 -2.4405,2.23881 -3.287616,3.10609"
       id="path13932"
       style="fill:#e41831;fill-opacity:1;stroke-width:20.1694" /><path
       d="m 55.566799,192.07355 c -0.665591,7.26099 -1.795079,14.52198 -1.855587,21.80315 v 0 c -0.36305,28.72125 4.19524,56.77692 12.90843,84.12666 v 0 c 4.114563,12.9286 9.701493,25.21178 17.84994,36.16378 v 0 c 16.014518,21.54094 36.042758,37.77732 60.084708,48.6083 v 0 c 0.0202,0.0202 0.0202,0.0202 0.0403,0.0202 v 0 c 1.14966,0.38322 2.25898,0.74627 3.40863,1.12949 v 0 c 17.66842,5.44575 35.05446,10.81081 53.3683,13.97741 v 0 c 1.12949,0.2017 2.80355,0.38322 3.93303,0.56475 v 0 c 0.34289,-0.64543 5.40541,-8.5115 6.23236,-9.9637 v 0 c 18.09197,-31.60549 43.24324,-55.88947 75.61516,-72.58975 v 0 c 15.26826,-7.86608 31.16176,-14.03792 48.34611,-16.23639 v 0 c 5.40541,-0.68576 10.77047,-1.37152 16.98265,-2.15813 v 0 c -1.16982,-0.22186 -1.49253,-0.32271 -1.81524,-0.32271 v 0 c -19.54417,-1.04881 -39.08835,-1.95643 -58.63252,-3.12626 v 0 c -13.85639,-0.84711 -27.73295,-1.73457 -41.50867,-3.1666 v 0 c -10.14522,-1.06898 -20.20976,-2.42033 -30.25413,-4.11456 v 0 c -5.8088,-0.80678 -11.59742,-1.67406 -17.36588,-2.58169 v 0 l -10.24606,-1.7144 -10.24607,-1.91609 c -13.63453,-2.6422 -27.20855,-5.8693 -40.48003,-10.06454 v 0 C 128.64062,266.3172 115.591,261.15382 103.44901,254.13486 v 0 c -1.49254,-0.86728 -2.98508,-1.81524 -4.477613,-2.74304 v 0 c -1.452199,-1.00847 -2.944736,-1.93626 -4.316257,-2.98507 v 0 c -0.524405,-0.36305 -1.068979,-0.74627 -1.573215,-1.12949 v 0 c -3.348124,-1.83542 -6.575231,-3.91287 -9.620814,-6.27269 v 0 C 67.345742,228.60038 57.402216,212.74721 56.57527,191.91219 v 0 c -0.02017,-0.48406 -0.121017,-0.94796 -0.221864,-1.43202 v 0 c -0.504235,0.48406 -0.726099,1.02864 -0.786607,1.59338"
       id="path13926"
       style="fill:#fdcf17;fill-opacity:1;stroke-width:20.1694" /><path
       d="m 642.81972,232.53341 c -2.88423,1.08915 -5.84913,2.03711 -8.83421,2.84389 v 0 c -20.714,5.40541 -41.64986,8.26946 -62.88826,8.67285 v 0 c -1.79508,0.0403 -3.59016,0.0605 -5.38524,0.0403 v 0 c -10.24606,-0.0202 -20.61315,-0.60508 -31.04074,-1.79508 v 0 c 1.19,0.54458 1.9161,0.9278 2.6422,1.19 v 0 c 6.81726,2.33965 12.86809,6.03066 17.93061,11.05284 v 0 c 3.65067,3.61033 7.16015,7.44252 10.50827,11.39573 v 0 c 1.06898,1.23033 2.09762,2.48084 3.14643,3.75151 v 0 c 0.7261,0.90762 1.4522,1.81525 2.1783,2.74304 v 0 c 4.1549,5.32473 8.0476,10.87132 12.24284,16.17588 v 0 c 4.29609,5.48608 9.13675,10.46793 14.9052,14.44131 v 0 c 11.19403,7.76522 23.3562,9.86284 36.44615,6.01048 v 0 c 17.38604,-5.10286 29.62888,-16.17587 36.72852,-32.73497 v 0 c 7.34167,-17.16418 8.67285,-35.03429 4.67931,-53.18677 v 0 c -1.19,-5.54659 -3.52965,-10.83098 -5.56676,-16.88181 v 0 c -5.20371,13.8564 -15.12707,21.50061 -27.69262,26.28076"
       id="path13938"
       style="fill:#fdcf17;fill-opacity:1;stroke-width:20.1694" /><path
       d="m 603.6507,114.50195 c 0,19.58451 0.0403,39.14885 -0.0605,58.71319 v 0 c 0,2.23881 0.78661,3.61033 2.50101,4.96168 v 0 c 8.06777,6.37354 15.57079,13.41266 22.52924,21.01654 v 0 c 3.44898,3.79185 6.3332,7.94675 8.06777,12.80758 v 0 c 2.03712,5.62727 2.09762,11.13352 -0.9883,16.47842 v 0 c -0.18152,0.36305 -0.28237,0.80678 -0.56474,1.55304 v 0 c 6.79709,-1.27067 12.10165,-4.59862 17.24486,-8.26946 v 0 c 9.23759,-6.57523 13.41266,-15.3691 12.7269,-26.80516 v 0 c -1.00847,-17.8096 -7.3215,-33.50141 -17.99112,-47.5595 v 0 c -11.35539,-14.98588 -26.01856,-26.0589 -42.09359,-35.39734 v 0 c -0.18152,-0.14119 -0.4639,-0.10085 -1.19,-0.22186 v 0 c -0.0807,1.02864 -0.18152,1.87575 -0.18152,2.72287"
       id="path13914"
       style="fill:#fdcf17;fill-opacity:1;stroke-width:20.1694" /><path
       d="m 680.63739,266.21635 c -1.33119,8.37031 -3.75152,16.39774 -7.56354,23.98144 v 0 c -6.93828,13.73538 -17.38604,23.63857 -31.96853,28.88262 v 0 c -13.02945,4.69947 -25.71602,4.47761 -37.91852,-2.66237 v 0 c -0.48406,-0.28237 -1.04881,-0.44372 -1.59338,-0.68576 v 0 c -0.12102,0.48407 -0.2622,0.70593 -0.24203,0.9278 v 0 c 0.0807,0.60508 0.22186,1.23033 0.40338,1.79507 v 0 c 5.54659,17.58774 16.70029,30.11295 33.76362,37.17225 v 0 c 3.52965,1.4522 7.18031,2.31948 10.93182,2.54135 v 0 h 3.91287 c 0.40339,-0.0202 0.78661,-0.0605 1.16983,-0.10085 v 0 c 5.04236,-0.48406 9.70149,-1.99677 13.15046,-6.03066 v 0 c 2.15813,-2.54134 4.31626,-5.08269 6.41388,-7.64421 v 0 c 9.35861,-11.39572 14.94554,-24.42517 16.90198,-39.00766 v 0 c 1.95643,-14.36063 -1.75474,-27.99516 -5.62727,-41.58935 v 0 c -0.10085,-0.36305 -0.54458,-0.64542 -1.08915,-1.25051 v 0 c -0.2622,1.49254 -0.48407,2.58169 -0.64542,3.67084"
       id="path13974"
       style="fill:#e41831;fill-opacity:1;stroke-width:20.1694" /><path
       d="m 119.52404,101.00861 c -18.05163,12.44453 -33.279549,27.67244 -45.179509,46.12747 v 0 c -4.578459,7.09963 -8.329971,14.62283 -10.770471,22.7511 v 0 c -4.033885,13.49335 -4.074224,26.84551 1.835417,39.87495 v 0 c 1.210165,2.66237 2.843889,5.12304 4.296087,7.66438 v 0 c 0.201694,-0.14118 0.403389,-0.28237 0.605083,-0.46389 v 0 c 0.02017,-0.10085 0.100847,-0.22187 0.06051,-0.34288 v 0 c -0.100847,-0.36305 -0.221864,-0.70593 -0.322711,-1.04881 v 0 c -3.348126,-10.30658 -2.52118,-20.43163 2.501007,-29.89109 v 0 c 7.543364,-14.27995 17.930617,-26.01855 32.371927,-33.82412 v 0 c 5.99032,-3.24728 11.71843,-6.91811 17.42638,-10.30657 v 0 -42.09359 c -1.16983,0.62525 -2.03711,1.02864 -2.82372,1.55305"
       id="path13962"
       style="fill:#fdcf17;fill-opacity:1;stroke-width:20.1694" /></g><path
     id="path13908"
     style="fill:#028752;fill-opacity:1;stroke-width:20.1694"
     d="m 186.62691,25.070312 -27.85351,28.5 -0.20117,93.142578 -0.34375,94.21094 -0.1211,27.59179 c 21.80312,4.90117 44.07023,8.14902 66.35742,11.09376 13.63452,1.75473 27.30953,3.40774 40.98438,4.71874 6.83743,0.7261 13.69513,1.43335 20.55273,2.0586 l 20.59375,1.91601 20.61328,1.85547 20.61329,2.05664 c 6.85759,0.7866 13.75436,1.5736 20.59179,2.64258 1.9766,0.34288 3.95309,0.66561 5.92969,1.04883 7.36183,0.12102 14.68373,0.6654 22.02539,1.73437 38.58407,5.6071 72.16705,21.76334 100.2832,48.75 32.85596,31.56511 51.33016,70.24975 55.52539,115.69141 0.9278,10.14521 1.11056,20.33067 -0.0391,30.43555 -0.84711,7.28115 -1.04879,14.70374 -3.02539,21.7832 l 17.42578,-14.4414 -0.44336,-111.53711 -0.32226,-112.46485 v -4.19531 c -1.9766,-2.58168 -3.97334,-5.14285 -6.05078,-7.60352 -7.54337,-8.99555 -16.68134,-15.87415 -28.41993,-18.61718 -0.60508,-0.14118 -1.17031,-0.44408 -1.77539,-0.54493 -1.83541,-0.40339 -2.2376,-1.69375 -2.19726,-3.34765 0.0202,-1.83541 1.08897,-2.72206 2.7832,-2.80274 1.59339,-0.0807 3.20739,-0.0208 4.80078,0.14063 4.31625,0.44373 8.59195,1.13041 12.90821,1.45312 5.97014,0.42356 11.92049,0.64453 17.89062,0.64454 L 565.44918,52.199219 538.5234,25.3125 Z m -29.0625,366.558598 -0.14257,33.01757 c 11.09317,3.34812 22.4285,5.9513 33.82421,8.16993 0.76644,0.0403 1.45288,0.0396 2.07813,0.0195 3.26744,-9.49979 6.53469,-18.93847 9.88281,-28.59961 -15.32874,-3.91287 -30.69705,-7.4844 -45.64258,-12.60742 z" /><path
     d="m 349.05203,307.14011 c -8.67285,1.04881 -16.94231,3.59016 -25.19161,6.3332 v 0 c -24.52601,8.18878 -47.39814,19.58451 -67.12384,36.56716 v 0 c -36.50665,31.4643 -55.34489,71.46027 -55.90964,119.66519 v 0 c -0.0605,6.95845 0.22187,13.83622 0.84712,20.63332 v 0 c 0.12102,1.12949 0.22186,2.27914 0.34288,3.40863 v 0 c 2.07745,19.10044 6.73659,37.77733 13.11012,56.071 v 0 c 6.83744,19.66518 18.63655,36.02259 35.37717,48.56797 v 0 c 7.44252,5.6071 14.88504,11.13352 22.50908,16.45825 v 0 c 36.84953,25.63533 77.20855,35.29649 121.19806,28.21702 v 0 c 0.86729,-0.12102 1.73457,-0.2622 2.60186,-0.42356 v 0 c 0.62525,-0.12102 1.27067,-0.22186 1.91609,-0.36305 v 0 c 58.99556,-10.93183 105.38524,-50.78661 125.99839,-103.48931 v 0 c 0.7866,-2.01694 1.53287,-4.07422 2.2388,-6.15167 v 0 c 6.071,-17.48689 9.33845,-36.30496 9.33845,-55.8693 v 0 c 0.0202,-21.84349 -3.79186,-43.18274 -11.92013,-62.76725 v 0 C 503.2271,363.09009 465.12706,330.81901 413.25131,314.03805 v 0 c -17.20452,-5.56676 -35.0948,-7.30133 -53.10609,-7.76523 v 0 c -0.30255,0 -0.56475,0 -0.86729,0 v 0 c -3.40863,0 -6.83743,0.48407 -10.2259,0.86729 m -9.23759,15.91367 c 8.28963,-0.80677 16.59943,-1.63372 25.41347,-2.48084 v 0 c -2.62203,2.82372 -9.64098,4.55829 -15.93384,4.55829 v 0 c -3.83219,0 -7.40218,-0.64542 -9.47963,-2.07745 m -85.01412,68.59621 c -0.40339,-4.4171 0.4639,-8.63251 2.09762,-12.72691 v 0 c 4.73981,-11.69826 11.83945,-21.68213 21.66196,-29.70956 v 0 c 13.41267,-10.99233 28.84227,-17.84993 45.5829,-21.68213 v 0 c 5.08269,-1.12948 10.58894,-0.74626 15.8935,-0.58491 v 0 c 4.03389,0.12102 5.64744,2.07745 5.82896,6.25252 v 0 c 0.14119,3.95321 0.0202,7.92659 0.0202,11.89996 v 0 c 0,0 -0.2622,6.91811 -0.32271,10.40742 v 0 c -0.18152,7.28117 -2.76321,10.87132 -9.45946,13.53369 v 0 c -1.95643,0.76644 -3.85236,1.69423 -5.68777,2.74304 v 0 c -12.70674,7.20048 -25.39331,14.48164 -38.14038,21.62162 v 0 c -1.9161,1.08915 -4.03389,1.93627 -6.17185,2.46067 v 0 c -6.23235,1.53288 -12.52521,2.9044 -18.7979,4.27592 v 0 c -0.88745,0.20169 -1.79508,0.30254 -2.7027,0.30254 v 0 c -0.10085,0 -0.16136,0 -0.2622,0 v 0 c -5.74829,-0.14119 -8.99557,-3.04558 -9.54014,-8.79387 m 237.91851,2.35982 c -1.87575,-0.88745 -3.691,-2.01694 -5.32472,-3.30778 v 0 c -12.28318,-9.66116 -23.96128,-19.96773 -34.77209,-31.26261 v 0 c -9.15692,-9.60064 -18.39451,-19.08027 -29.26583,-26.80516 v 0 c -0.28237,-0.22186 -0.42356,-0.58491 -0.70593,-0.90763 v 0 c 21.5006,2.46067 68.334,40.92376 76.1194,62.60589 v 0 c -0.84712,0.38322 -1.69423,0.54458 -2.50101,0.54458 v 0 c -1.23033,0 -2.42033,-0.34288 -3.54982,-0.86729 m -133.31988,78.62041 c -11.4159,-3.26744 -22.75111,-6.89794 -33.96531,-10.83098 v 0 c -7.96692,-2.82372 -13.31182,-8.69302 -15.49012,-16.8818 v 0 c -2.4405,-9.21743 -4.65914,-18.49536 -6.39371,-27.85398 v 0 c -2.21863,-12.12182 1.9161,-22.20653 11.2142,-30.19362 v 0 c 6.01049,-5.20371 12.58572,-9.62082 19.60468,-13.37233 v 0 c 7.11981,-3.81202 14.70351,-5.82896 22.08552,-5.72812 v 0 c 6.5954,-0.0605 12.4042,0.68576 17.93062,2.60186 v 0 c 6.99879,2.46067 13.97741,5.10286 20.67366,8.26946 v 0 c 8.71319,4.0944 14.98588,10.85115 18.83824,19.7257 v 0 c 0.58491,1.37152 1.08915,2.80355 1.37152,4.23558 v 0 c 1.53287,8.02743 3.12626,16.05486 4.45744,24.10246 v 0 c 1.35135,8.14844 -1.10932,15.1674 -7.60387,20.18959 v 0 c -9.82251,7.56353 -19.84671,14.86486 -29.99193,21.9645 v 0 c -4.63897,3.24728 -9.762,4.881 -15.08673,4.881 v 0 c -2.52118,0 -5.0827,-0.36305 -7.64421,-1.10932 m 101.95643,-4.51795 c -3.52965,-4.27591 -7.18031,-8.53166 -11.17386,-12.40419 v 0 c -6.17184,-6.03066 -13.25131,-10.81081 -21.07705,-14.40097 v 0 c -3.50948,-1.61355 -5.04235,-3.87253 -5.00201,-7.76523 v 0 c 0.0605,-8.12828 -2.4405,-15.87333 -4.33643,-23.6789 v 0 c -1.10932,-4.57846 -2.33965,-9.11658 -3.71117,-13.63453 v 0 c -2.09762,-7.07947 -0.34288,-12.80758 5.88947,-16.80113 v 0 c 5.18354,-3.32795 10.44776,-6.69625 16.03469,-9.31827 v 0 c 6.83743,-3.24728 13.85639,-2.74304 20.04841,1.89592 v 0 c 8.22912,6.17185 16.27672,12.58572 24.28398,19.01977 v 0 c 5.58693,4.47761 9.39895,10.4881 13.47318,16.23638 v 0 c 3.32795,4.65914 5.50625,9.51997 5.97014,15.28843 v 0 c 0.4639,5.52642 1.41186,11.03267 1.83542,14.19927 v 0 c 0.62525,13.57402 -3.50948,22.50908 -12.90843,28.72126 v 0 c -3.81202,2.52118 -7.74506,4.94151 -11.87979,6.87777 v 0 c -2.9649,1.39169 -5.36507,2.11779 -7.48286,2.11779 v 0 c -3.61032,0 -6.43404,-2.07745 -9.96369,-6.35337 m -247.23679,3.1666 c 0.62525,-5.88947 1.29085,-11.79911 2.23881,-17.66841 v 0 c 2.15813,-13.45301 5.04235,-26.76483 9.84268,-39.55224 v 0 c 3.691,-9.78217 8.47115,-18.9996 14.82452,-27.34974 v 0 c 0.94797,-1.27067 1.99678,-2.54135 3.18677,-3.59016 v 0 c 2.09762,-1.83541 4.47761,-2.42033 7.34167,-1.41185 v 0 c 0,0.9883 0.0403,1.83541 0,2.64219 v 0 c -0.18152,3.34812 -0.5244,6.67608 -0.58491,10.00403 v 0 c -0.14119,8.2493 -2.60186,15.833 -6.5954,22.95281 v 0 c -5.30456,9.49979 -8.7737,19.64501 -10.58895,30.35498 v 0 c -0.66559,3.79185 -1.04881,7.62404 -1.87576,11.33521 v 0 c -1.95643,8.65269 -6.45421,15.73215 -13.53368,21.1779 v 0 c -0.36305,0.2622 -0.78661,0.46389 -1.41186,0.82694 v 0 c -2.58168,-2.86405 -3.22711,-6.19201 -2.84389,-9.72166 m 246.51069,96.02663 c -3.30778,-6.89795 -6.17184,-14.03792 -8.81404,-21.23841 v 0 c -1.57321,-4.21541 -1.00847,-8.63251 1.43203,-12.52521 v 0 c 7.82574,-12.56555 12.62606,-26.28076 15.3691,-40.7624 v 0 c 1.23034,-6.43405 4.55829,-11.33522 10.18556,-14.78419 v 0 c 6.05083,-3.691 11.85962,-7.66438 17.78943,-11.4764 v 0 c 0.7261,-0.50424 1.47237,-0.94796 2.23881,-1.37152 v 0 c 3.99354,-2.15813 6.45421,-1.87576 9.64098,1.43203 v 0 c 6.45422,6.69625 9.94353,14.68334 9.90319,25.31262 v 0 c -0.50424,7.50303 -2.19847,15.97419 -4.47761,24.3445 v 0 c -4.3566,16.07503 -11.57725,30.75837 -21.60146,44.07019 v 0 c -1.21016,1.57321 -2.501,3.02541 -3.85235,4.31625 v 0 l -0.0403,0.0605 c -1.10932,1.04881 -2.25898,1.99677 -3.46914,2.86406 v 0 c -3.3683,2.42033 -7.16015,4.13473 -11.43607,5.22388 v 0 c -1.73457,0.4639 -3.28761,0.70593 -4.63896,0.70593 v 0 c -3.69101,0 -6.13151,-1.79508 -8.22913,-6.17184 m -131.16176,7.80556 c -11.09318,-1.7144 -21.68213,-4.94151 -31.2626,-11.0125 v 0 c -17.60791,-11.13352 -27.18838,-27.24889 -29.60872,-47.80154 v 0 c -0.12101,-0.86728 -0.12101,-1.73457 -0.12101,-2.11778 v 0 c 0.0202,-8.7737 2.60185,-16.17588 8.67285,-21.904 v 0 c 8.18879,-7.74506 16.5591,-15.28842 25.09076,-22.63009 v 0 c 6.29286,-5.44574 13.63453,-6.5954 21.60145,-4.03389 v 0 c 11.17386,3.61033 22.4284,7.07947 33.58209,10.83098 v 0 c 3.22711,1.08915 6.39371,2.6422 9.27794,4.49779 v 0 c 4.881,3.12626 7.88624,7.82573 9.33844,13.41266 v 0 c 2.92457,11.27471 5.78863,22.54942 8.59217,33.84429 v 0 c 1.87576,7.50303 0.30255,14.21945 -4.71964,20.10892 v 0 c -8.572,10.04437 -18.87858,17.84994 -30.55668,23.86043 v 0 c -4.51795,2.31948 -9.27793,3.38846 -14.19927,3.38846 v 0 c -1.87576,0 -3.77168,-0.16136 -5.68778,-0.44373 m -65.38927,1.99678 c -0.10084,0 -0.16135,0 -0.2622,-0.0403 v 0 c -0.74627,-0.10085 -1.51271,-0.30255 -2.2388,-0.58492 v 0 c -1.71441,-0.64542 -3.42881,-1.5127 -4.94151,-2.52117 v 0 c -15.833,-10.32675 -27.43042,-24.10247 -33.76362,-42.07342 v 0 c -1.55304,-4.33643 -3.28761,-8.55184 -4.71964,-12.90843 v 0 c -0.62525,-1.85559 -1.10932,-3.67084 -1.49254,-5.48609 v 0 c -0.24203,-1.04881 -0.42356,-2.09762 -0.56474,-3.16659 v 0 c -1.59339,-10.91166 0.94796,-21.1779 8.18878,-30.69787 v 0 c 4.71965,-6.21218 7.62404,-6.45421 13.17064,-0.90762 v 0 c 3.32795,3.32795 6.23235,7.07947 9.68132,10.26624 v 0 c 4.25575,3.97337 8.67285,7.72489 13.35216,11.19403 v 0 c 2.54134,1.91609 3.65066,3.97337 3.85236,7.09963 v 0 c 0.38322,5.54659 0.84711,11.11335 1.83541,16.57927 v 0 c 1.4522,8.00726 4.881,15.28842 9.43929,22.02501 v 0 c 2.27915,3.36829 3.71118,6.97862 3.73135,12.04114 v 0 c -0.52441,6.47439 -3.87253,12.52522 -9.35862,17.38605 v 0 c -1.49253,1.31101 -3.14643,1.85558 -4.86083,1.85558 v 0 c -0.34288,0 -0.70593,-0.0403 -1.04881,-0.0605 M 501.6943,553.61049 c 2.13795,-4.41711 5.30455,-9.94353 7.20048,-12.32352 v 0 c -1.14966,3.44897 -2.56152,6.73659 -4.25575,9.86285 v 0 c -1.5127,2.86406 -3.26744,5.56676 -5.20371,8.16861 v 0 c 0.12102,-1.00847 1.02864,-3.1666 2.25898,-5.70794 m -82.63413,-5.20371 c 5.52642,-0.32271 11.0125,-1.59339 16.41791,-2.86406 v 0 c 6.81727,-1.61356 9.68132,-0.62525 13.17063,5.50625 v 0 c 3.50948,6.15167 6.5349,12.50504 8.14845,19.46349 v 0 c 1.33118,5.66761 0.80678,10.97217 -2.15813,16.0952 v 0 c -3.18677,5.52643 -6.73659,10.6898 -11.35538,15.1069 v 0 c -4.80033,4.59863 -10.26624,8.2493 -16.59944,10.24607 v 0 c -12.80758,4.03388 -25.87737,6.51472 -36.78903,6.93828 v 0 c -9.41912,0.10085 -16.13553,-0.84712 -22.52924,-3.38846 v 0 c -1.39169,-0.56475 -2.76321,-1.16983 -4.03389,-1.89593 v 0 c -9.2981,-5.16337 -13.35215,-14.07826 -11.09318,-24.44534 v 0 c 1.79508,-8.24929 5.78863,-15.32876 12.08149,-20.87535 v 0 c 6.49455,-5.72812 13.25131,-11.19403 19.94756,-16.70028 v 0 c 3.63049,-2.96491 7.88624,-3.71118 12.54538,-3.52965 v 0 c 5.20371,0.24203 10.40742,0.50423 15.61113,0.50423 v 0 c 2.21864,0 4.4171,-0.0403 6.63574,-0.16135 m -171.88382,24.42517 c 13.00927,8.67285 23.29568,20.2501 33.86446,31.56514 v 0 c -13.63453,-8.00726 -24.84873,-18.5962 -33.86446,-31.56514 m 158.69302,47.59984 c 3.73134,-0.58492 7.62404,-0.52441 11.45623,-0.48407 v 0 c 1.21016,0 2.4405,0.44373 3.65067,0.84712 v 0 c 0.42355,0.10084 0.82694,0.24203 1.2505,0.34288 v 0 c -0.0403,0.32271 -0.12102,0.64542 -0.16136,0.9883 v 0 c -1.65389,0.66559 -3.26744,1.27067 -4.92134,1.81525 v 0 c -25.77652,9.23759 -52.11778,11.0125 -79.14481,4.59862 v 0 c 6.51472,-3.89269 13.49334,-6.17184 20.89552,-7.24082 v 0 c 4.94151,-0.70593 9.86285,-0.76644 14.80436,0 v 0 c 4.07422,0.64542 8.16861,0.88746 12.22267,0.88746 v 0 c 6.65591,0 13.29165,-0.70593 19.94756,-1.75474"
     id="path13920"
     style="fill:url(#linearGradient62501);fill-opacity:1;stroke-width:20.1694" /><g
     id="g40700"
     transform="translate(-3.8273e-5)"><path
       id="path25283"
       style="fill:#ffffff;fill-opacity:1;stroke-width:20.1694"
       d="m 455.23438,180.38281 c -6.75171,-0.003 -13.50302,0.003 -20.25977,0.0332 -13.49333,0.0605 -20.61415,7.0991 -20.95703,20.57226 -0.0403,1.37153 0,2.72223 0,4.09375 -0.0202,9.88301 -0.0195,19.82729 -0.0195,29.73047 0,5.02217 5e-5,5.02148 5.18359,5.02148 0.86728,0 1.73428,-0.0195 2.60156,-0.0195 1.53288,0.0202 2.2591,-0.76595 2.2793,-2.29883 0,-0.86728 0.0195,-1.71474 0.0195,-2.58203 0,-10.16538 -0.041,-20.33071 0.0195,-30.49609 0,-2.07745 0.18315,-4.17582 0.50586,-6.27344 0.62525,-3.63049 2.78353,-6.02923 6.35352,-6.95703 1.43203,-0.36304 2.94365,-0.48437 4.41601,-0.48437 7.68455,-0.0806 15.36883,-0.041 23.03321,-0.041 h 19.72656 c 1.23033,0 2.46044,0.0202 3.71094,0 3.50947,-0.0403 3.65043,-0.2009 3.71093,-3.85156 v -3.34961 c -0.10085,-2.72288 -0.32332,-3.00395 -3.00586,-3.06445 -2.35981,-0.0605 -4.71894,-0.0215 -7.05859,-0.0215 -6.75675,0 -13.50806,-0.009 -20.25976,-0.0117 z m 2.64257,24.52344 c -7.98204,0 -15.96408,0.006 -23.95117,0.0156 -1.04881,0 -2.09792,0.24099 -3.50976,0.40234 0,2.76321 -0.0202,5.22488 0,7.68555 0,1.33117 0.64474,2.07621 1.99609,2.13671 0.9883,0.0403 1.97591,0.041 2.98437,0.041 14.60265,0 29.20595,6.7e-4 43.8086,-0.0195 6.95844,0 6.35351,0.64459 6.35351,-6.39453 0,-3.63049 -0.22099,-3.85156 -3.73047,-3.85156 -7.98708,-0.0101 -15.96913,-0.0156 -23.95117,-0.0156 z" /><path
       id="path25281"
       style="fill:#ffffff;fill-opacity:1;stroke-width:20.1694"
       d="m 311.73438,180.39062 c -0.24708,0 -0.49952,0.004 -0.76172,0.004 -15.34892,0.0201 -30.71817,7.2e-4 -46.10743,0.041 -1.83541,0.0202 -3.71209,0.12065 -5.52734,0.44336 -7.82573,1.41185 -13.02846,5.8286 -14.7832,13.71484 -0.54457,2.37999 -0.7259,4.9013 -0.7461,7.3418 -0.0605,10.42758 -0.0215,20.83673 -0.0215,31.24414 0,5.36506 0.54453,7.01758 4.01367,7.01758 1.04881,0 2.34088,-0.14078 3.97461,-0.38282 1.27067,-0.20169 2.03719,-0.8068 2.1582,-2.09765 0.0807,-0.9883 0.0605,-1.99672 0.0605,-2.96485 0,-10.5486 -0.0202,-21.05687 0,-31.60547 0,-1.61354 0.0399,-3.24709 0.32227,-4.82031 0.64542,-3.79184 2.84355,-6.27334 6.61523,-7.14062 1.43203,-0.36305 2.9456,-0.46418 4.41797,-0.48438 7.54335,-0.0404 15.1064,-0.0195 22.66992,-0.0195 h 13.00977 c 3.46913,0 6.95859,0.0403 10.42773,0 3.691,-0.0403 3.87114,-0.24203 3.93164,-4.07422 0,-1.12949 0.0208,-2.2377 -0.0195,-3.36719 -0.12102,-2.37998 -0.42346,-2.68302 -2.9043,-2.82421 -0.24203,-0.0202 -0.48339,-0.0254 -0.73046,-0.0254 z m -48.90626,24.50977 c -1.81524,0 -2.78387,0.78767 -2.76367,2.68359 0.0605,1.75474 0.0397,3.46856 0.0195,5.20313 -0.0202,1.53287 0.66635,2.34056 2.19922,2.38086 h 2.96485 c 14.62281,0 29.24568,-6.7e-4 43.88867,0.0195 7.03912,0 6.21222,0.38359 6.23242,-6.55469 0,-3.50947 -0.20091,-3.71093 -3.85156,-3.71093 -7.92658,-0.0202 -15.85404,-0.0215 -23.80078,-0.0215 h -15.61133 -6.19141 z" /><path
       id="path25277"
       style="fill:#ffffff;fill-opacity:1;stroke-width:20.1694"
       d="m 366.45898,180.38281 c -5.45078,-0.003 -10.90159,0.0124 -16.35742,0.0527 -2.09762,0.0202 -4.23569,0.22161 -6.29297,0.625 -7.36183,1.43202 -12.2225,5.74949 -14.01757,13.11133 -0.62525,2.48083 -0.96947,5.12207 -1.00977,7.68359 -0.1008,10.5486 -0.0391,21.0764 -0.0391,31.625 0,5.90963 -0.48359,6.35351 4.11523,6.35351 0.66539,0 1.45176,-0.0195 2.35938,-0.0195 3.63009,-0.0202 3.68945,-0.10132 3.68945,-3.8125 0.0404,-10.30656 0.001,-20.59315 0.0215,-30.85937 0.0202,-1.85559 0.0802,-3.73036 0.26172,-5.58594 0.56475,-5.22387 3.61015,-8.26988 8.89453,-8.81445 0.9883,-0.1008 1.95637,-0.0606 2.96485,-0.0606 h 30.85937 c 0.24204,0.0202 0.52491,0.0195 0.78711,0.0195 0.48407,-0.0201 0.96774,-0.0188 1.43164,0.0215 3.50948,0.2622 5.16389,1.69357 5.91016,5.08203 1.23034,5.48608 -1.45349,8.91418 -7.12109,9.0957 -0.86728,0.0202 -1.73365,0 -2.6211,0 h -28.98437 c -6.61557,0 -6.23171,-0.50284 -6.19141,6.25391 0.0202,3.81202 0.20162,4.01367 3.95313,4.01367 10.68978,0.0404 21.33883,0.0195 31.98828,0.0195 1.23033,0 2.48192,-0.0207 3.73242,0.14062 1.77491,0.22187 3.3073,0.98994 4.33594,2.54297 3.12625,4.80032 0.22101,11.05114 -5.40625,11.59571 -1.35135,0.10085 -2.70207,0.10156 -4.09375,0.10156 -9.39894,0.0202 -18.81722,0.0403 -28.23633,0 -6.95845,-0.0202 -6.29364,-0.14111 -6.27344,6.23242 0,3.73134 0.2817,4.01367 4.0332,4.01367 11.01249,0.0202 22.04547,0.0195 33.07813,-0.041 2.21864,0 4.47729,-0.24183 6.61523,-0.68555 5.90965,-1.29085 9.74165,-5.0018 10.93164,-10.87109 1.27068,-6.17185 1.15048,-12.32402 -2.80273,-18.13282 3.46914,-5.02217 3.79258,-10.4867 3.1875,-16.15429 -0.7261,-6.81727 -5.04276,-11.67791 -11.83984,-12.96875 -1.81525,-0.36305 -3.69063,-0.52539 -5.50586,-0.52539 -5.45583,-0.0302 -10.90664,-0.0502 -16.35743,-0.0527 z" /></g><g
     id="g40692"
     style="fill:#ffffff"
     transform="translate(-3.8273e-5)"><path
       id="path25273"
       style="fill:#ffffff;fill-opacity:1;stroke-width:20.1694"
       d="m 319.66602,81.34375 -12.4043,0.01953 c -0.54458,0.02017 -1.2912,0.342705 -1.59375,0.746094 l -6.51563,9.640625 5.0625,0.02148 c 1.08679,-6.6e-4 2.38366,-0.02429 3.67188,-0.06055 0.68576,-0.02017 1.41182,-0.464477 1.97656,-0.908204 l 10.00391,-8.693359 z m -34.0879,14.460938 V 146.5918 h 41.71094 v -12.60547 h -26.1582 v -6.89844 h 23.47656 v -12.14258 h -23.47851 l 0.002,-6.71679 h 26.1582 V 95.804688 Z" /><path
       style="fill:#ffffff;fill-opacity:1;stroke-width:20.1694"
       d="m 428.33807,95.804894 h 14.8447 v 50.705926 h -14.8447 z"
       id="path25271" /><path
       id="path25269"
       style="fill:#ffffff;fill-opacity:1;stroke-width:20.1694"
       d="m 228.45703,95.587891 c -4.69695,0.01513 -9.39623,0.056 -14.0957,0.07617 -0.22187,0 -0.4241,0.221497 -0.84766,0.44336 v 50.583989 c 5.82896,0 11.55765,0.0215 17.20508,0.0215 4.4171,0 8.83354,-7.1e-4 13.23047,-0.10156 3.85235,-0.0605 7.46299,-1.43251 10.66992,-3.8125 7.54336,-5.52642 7.60302,-19.34184 -1.33203,-23.47656 -0.46389,-0.22186 -0.84672,-0.68586 -1.43164,-1.16993 0.50424,-0.40338 0.80616,-0.64596 1.06836,-0.84765 7.26098,-5.82896 5.82978,-16.65977 -2.80274,-20.12891 -2.33964,-0.947962 -5.04263,-1.471379 -7.58398,-1.511719 -4.68939,-0.08068 -9.38313,-0.0913 -14.08008,-0.07617 z m 6.37891,11.798829 c 1.8581,-0.0202 3.67695,0.1065 5.49218,0.6914 1.61355,0.5244 2.52149,1.6742 2.52149,3.26758 0,1.51271 -0.62406,2.90473 -2.19727,3.57032 -0.68576,0.2622 -1.39172,0.625 -2.09765,0.625 -3.06575,0.0807 -6.13168,0.0391 -9.43946,0.0391 v -8.00586 c 1.96652,0 3.8626,-0.16733 5.72071,-0.1875 z m 1.34179,17.59961 c 1.35636,0.004 2.69226,0.034 4.02344,0.11719 2.80355,0.16135 4.27671,1.97694 4.29688,4.61914 0.0202,2.58166 -1.51215,4.59776 -4.21485,4.77929 -3.65065,0.22186 -7.36177,0.0606 -11.11328,0.0606 v -9.51953 c 2.43293,0 4.74724,-0.0635 7.00781,-0.0566 z" /><path
       id="path39757"
       style="fill:#ffffff;fill-opacity:1;stroke-width:20.1694"
       d="m 355.03711,95.804688 v 50.707032 h 14.8457 v -27.5625 l 15.91797,27.5625 h 14.84375 V 95.804688 H 385.80078 V 123.03906 L 370.77539,95.804688 Z"
       sodipodi:nodetypes="ccccccccccc" /><path
       id="path39898"
       style="fill:#ffffff;fill-opacity:1;stroke-width:20.1694"
       d="m 471.01441,95.804688 v 50.707032 h 14.8457 v -27.5625 l 15.91797,27.5625 h 14.84375 V 95.804688 H 501.77808 V 123.03906 L 486.75269,95.804688 Z"
       sodipodi:nodetypes="ccccccccccc" /></g></svg>
